<mxfile host="app.diagrams.net" agent="Mozilla/5.0 (Macintosh; Intel Mac OS X 10_15_7) AppleWebKit/537.36 (KHTML, like Gecko) Chrome/129.0.0.0 Safari/537.36" version="24.7.17">
  <diagram name="PÃ¡gina-1" id="Vy3yoQKrzV_aXkZKmzQf">
    <mxGraphModel dx="1434" dy="761" grid="1" gridSize="10" guides="1" tooltips="1" connect="1" arrows="1" fold="1" page="1" pageScale="1" pageWidth="827" pageHeight="1169" math="0" shadow="0">
      <root>
        <mxCell id="0" />
        <mxCell id="1" parent="0" />
        <mxCell id="oqBFZL2-qDP8keXE3h4_-3" style="edgeStyle=orthogonalEdgeStyle;rounded=0;orthogonalLoop=1;jettySize=auto;html=1;entryX=0.5;entryY=0;entryDx=0;entryDy=0;" edge="1" parent="1" source="oqBFZL2-qDP8keXE3h4_-1" target="oqBFZL2-qDP8keXE3h4_-2">
          <mxGeometry relative="1" as="geometry" />
        </mxCell>
        <mxCell id="oqBFZL2-qDP8keXE3h4_-1" value="Inicio" style="ellipse;whiteSpace=wrap;html=1;" vertex="1" parent="1">
          <mxGeometry x="50" y="140" width="90" height="80" as="geometry" />
        </mxCell>
        <mxCell id="oqBFZL2-qDP8keXE3h4_-6" style="edgeStyle=orthogonalEdgeStyle;rounded=0;orthogonalLoop=1;jettySize=auto;html=1;" edge="1" parent="1" source="oqBFZL2-qDP8keXE3h4_-2" target="oqBFZL2-qDP8keXE3h4_-5">
          <mxGeometry relative="1" as="geometry" />
        </mxCell>
        <mxCell id="oqBFZL2-qDP8keXE3h4_-2" value="Obtener edad" style="shape=parallelogram;perimeter=parallelogramPerimeter;whiteSpace=wrap;html=1;fixedSize=1;" vertex="1" parent="1">
          <mxGeometry x="35" y="270" width="120" height="60" as="geometry" />
        </mxCell>
        <mxCell id="oqBFZL2-qDP8keXE3h4_-8" value="" style="edgeStyle=orthogonalEdgeStyle;rounded=0;orthogonalLoop=1;jettySize=auto;html=1;" edge="1" parent="1" source="oqBFZL2-qDP8keXE3h4_-5" target="oqBFZL2-qDP8keXE3h4_-7">
          <mxGeometry relative="1" as="geometry" />
        </mxCell>
        <mxCell id="oqBFZL2-qDP8keXE3h4_-10" style="edgeStyle=orthogonalEdgeStyle;rounded=0;orthogonalLoop=1;jettySize=auto;html=1;" edge="1" parent="1" source="oqBFZL2-qDP8keXE3h4_-5">
          <mxGeometry relative="1" as="geometry">
            <mxPoint x="95" y="560" as="targetPoint" />
          </mxGeometry>
        </mxCell>
        <mxCell id="oqBFZL2-qDP8keXE3h4_-5" value="edad &amp;gt;= 18" style="rhombus;whiteSpace=wrap;html=1;" vertex="1" parent="1">
          <mxGeometry x="55" y="400" width="80" height="80" as="geometry" />
        </mxCell>
        <mxCell id="oqBFZL2-qDP8keXE3h4_-13" value="" style="edgeStyle=orthogonalEdgeStyle;rounded=0;orthogonalLoop=1;jettySize=auto;html=1;" edge="1" parent="1" source="oqBFZL2-qDP8keXE3h4_-7" target="oqBFZL2-qDP8keXE3h4_-12">
          <mxGeometry relative="1" as="geometry" />
        </mxCell>
        <mxCell id="oqBFZL2-qDP8keXE3h4_-7" value="beber chelita" style="whiteSpace=wrap;html=1;" vertex="1" parent="1">
          <mxGeometry x="195" y="410" width="120" height="60" as="geometry" />
        </mxCell>
        <mxCell id="oqBFZL2-qDP8keXE3h4_-9" value="si" style="text;html=1;align=center;verticalAlign=middle;resizable=0;points=[];autosize=1;strokeColor=none;fillColor=none;" vertex="1" parent="1">
          <mxGeometry x="135" y="408" width="30" height="30" as="geometry" />
        </mxCell>
        <mxCell id="oqBFZL2-qDP8keXE3h4_-11" value="fin" style="ellipse;whiteSpace=wrap;html=1;" vertex="1" parent="1">
          <mxGeometry x="50" y="560" width="90" height="80" as="geometry" />
        </mxCell>
        <mxCell id="oqBFZL2-qDP8keXE3h4_-12" value="fin" style="ellipse;whiteSpace=wrap;html=1;" vertex="1" parent="1">
          <mxGeometry x="215" y="560" width="80" height="80" as="geometry" />
        </mxCell>
        <mxCell id="oqBFZL2-qDP8keXE3h4_-14" value="no" style="text;html=1;align=center;verticalAlign=middle;resizable=0;points=[];autosize=1;strokeColor=none;fillColor=none;" vertex="1" parent="1">
          <mxGeometry x="90" y="498" width="40" height="30" as="geometry" />
        </mxCell>
      </root>
    </mxGraphModel>
  </diagram>
</mxfile>
